<?xml version="1.0" encoding="iso-8859-1"?>
<!-- Generator: Adobe Illustrator 19.0.0, SVG Export Plug-In . SVG Version: 6.00 Build 0)  -->
<svg version="1.1" id="Capa_1" xmlns="http://www.w3.org/2000/svg" xmlns:xlink="http://www.w3.org/1999/xlink" x="0px" y="0px"
	 viewBox="0 0 512.001 512.001" style="enable-background:new 0 0 512.001 512.001;" xml:space="preserve">
<g>
	<g>
		<path d="M504,71.231c-0.175-3.244-2.419-6.007-5.559-6.843L257.744,0.253c-1.267-0.337-2.599-0.337-3.865,0L13.557,64.389
			c-3.134,0.837-5.376,3.593-5.556,6.832c-0.167,3-3.758,74.526,24.369,164.954c16.531,53.146,40.663,101.67,71.727,144.226
			c38.858,53.234,88.698,97.185,148.134,130.636c1.141,0.642,2.409,0.964,3.678,0.964c1.208,0,2.417-0.292,3.518-0.876
			c59.536-31.624,109.459-74.46,148.38-127.319c31.099-42.237,55.258-90.903,71.806-144.648
			C507.755,147.755,504.167,74.314,504,71.231z M465.12,235.25c-16.08,52.042-39.491,99.117-69.583,139.92
			c-35.099,47.591-79.482,86.764-132.035,116.593v-38.585c68.129-43.011,119.511-103.897,152.726-181.048
			c27.349-63.523,36.261-123.823,38.921-163.223c0.242-3.58-2.085-6.83-5.553-7.753l-15.295-4.075
			c-4.001-1.066-8.112,1.313-9.179,5.317c-1.066,4.002,1.313,8.113,5.317,9.179l9.287,2.475
			c-3.077,38.196-12.153,93.793-37.277,152.148c-31.816,73.903-80.874,132.291-145.855,173.619
			c-6.523-4.313-12.938-8.814-19.119-13.416c-3.321-2.474-8.021-1.787-10.496,1.536c-2.474,3.322-1.787,8.022,1.536,10.496
			c6.459,4.81,13.168,9.499,19.984,14v39.085c-52.577-31.452-96.972-71.664-132.082-119.684
			c-30.083-41.145-53.485-88.108-69.557-139.584C23.727,158.154,22.596,95.692,22.836,77.439l225.663-60.224v34.259L62.511,101.11
			c-3.476,0.928-5.804,4.193-5.548,7.782c1.937,27.106,7.389,69.279,22.368,116.268c24.763,77.682,66.353,142.489,123.614,192.622
			c1.423,1.246,3.184,1.857,4.939,1.857c2.087,0,4.163-0.866,5.647-2.56c2.729-3.117,2.414-7.856-0.703-10.584
			c-55.176-48.306-95.282-110.849-119.204-185.89c-13.438-42.155-18.972-80.313-21.213-106.608l183.413-48.948l142.195,37.889
			c4.003,1.065,8.113-1.313,9.179-5.317c1.066-4.002-1.313-8.113-5.317-9.179l-138.38-36.873V17.312l225.661,60.13
			C489.41,96.007,488.328,160.142,465.12,235.25z"/>
	</g>
</g>
<g>
	<g>
		<path d="M368.849,175.256c-4.443-4.45-10.354-6.899-16.644-6.899c-6.291,0-12.202,2.449-16.641,6.895l-95.597,95.593
			l-52.19-52.186c-4.441-4.448-10.353-6.898-16.643-6.898c-6.291,0-12.201,2.449-16.639,6.893
			c-4.446,4.445-6.897,10.355-6.897,16.643c0,6.288,2.449,12.197,6.895,16.64l68.829,68.83c4.443,4.448,10.353,6.898,16.644,6.898
			c6.291,0,12.201-2.449,16.641-6.895l112.236-112.236c4.447-4.443,6.897-10.354,6.897-16.642S373.291,179.694,368.849,175.256z
			 M358.237,197.924L245.996,310.165c-1.608,1.61-3.749,2.497-6.03,2.497s-4.422-0.887-6.033-2.5l-68.834-68.835
			c-1.611-1.61-2.499-3.751-2.499-6.031s0.888-4.42,2.504-6.037c1.608-1.61,3.75-2.497,6.03-2.497c2.279,0,4.42,0.887,6.033,2.5
			l57.497,57.493c2.929,2.929,7.679,2.928,10.607,0l100.905-100.901c1.608-1.61,3.75-2.497,6.03-2.497s4.42,0.887,6.034,2.502
			c1.611,1.61,2.499,3.752,2.499,6.031S359.85,196.312,358.237,197.924z"/>
	</g>
</g>
<g>
</g>
<g>
</g>
<g>
</g>
<g>
</g>
<g>
</g>
<g>
</g>
<g>
</g>
<g>
</g>
<g>
</g>
<g>
</g>
<g>
</g>
<g>
</g>
<g>
</g>
<g>
</g>
<g>
</g>
</svg>
