<svg id="icons" enable-background="new 0 0 64 64" height="512" viewBox="0 0 64 64" width="512" xmlns="http://www.w3.org/2000/svg"><g><g><path d="m55 25c-.238 0-.477-.085-.666-.254-.341-.304-8.334-7.526-8.334-14.746 0-4.963 4.037-9 9-9s9 4.037 9 9c0 7.22-7.993 14.442-8.334 14.746-.189.169-.428.254-.666.254zm0-22c-3.859 0-7 3.141-7 7 0 5.21 5.134 10.77 6.999 12.617 1.865-1.849 7.001-7.417 7.001-12.617 0-3.859-3.141-7-7-7z"/></g><g><path d="m51.52 55.002h-12.508c-.553 0-1-.447-1-1s.447-1 1-1h12.508c.553 0 1 .447 1 1s-.448 1-1 1z"/></g><g><path d="m51.52 39.998h-39.032c-.553 0-1-.447-1-1s.447-1 1-1h39.032c.553 0 1 .447 1 1s-.448 1-1 1z"/></g><g><path d="m48.002 25h-35.016c-.553 0-1-.447-1-1s.447-1 1-1h35.016c.553 0 1 .447 1 1s-.447 1-1 1z"/></g><g><path d="m51.52 55.002c-.553 0-1-.447-1-1s.447-1 1-1c3.585 0 6.502-2.917 6.502-6.502s-2.917-6.502-6.502-6.502c-.553 0-1-.447-1-1s.447-1 1-1c4.688 0 8.502 3.813 8.502 8.502s-3.814 8.502-8.502 8.502z"/></g><g><path d="m12.488 39.998c-4.688 0-8.502-3.813-8.502-8.502s3.813-8.502 8.502-8.502c.553 0 1 .447 1 1s-.447 1-1 1c-3.585 0-6.502 2.917-6.502 6.502s2.917 6.502 6.502 6.502c.553 0 1 .447 1 1s-.447 1-1 1z"/></g><g><path d="m54.994 14c-2.206 0-4-1.795-4-4.002 0-2.204 1.794-3.998 4-3.998s4 1.794 4 3.998c0 2.207-1.794 4.002-4 4.002zm0-6c-1.103 0-2 .896-2 1.998 0 1.104.897 2.002 2 2.002s2-.898 2-2.002c0-1.102-.897-1.998-2-1.998z"/></g><g><g><path d="m34 55.451c-.553 0-1-.447-1-1 0-.85-.605-1.567-1.44-1.707-.545-.092-.912-.607-.821-1.151.092-.545.608-.916 1.151-.821 1.803.303 3.11 1.85 3.11 3.68 0 .552-.447.999-1 .999z"/></g><g><path d="m34 57c-.553 0-1-.447-1-1v-1.549c0-.553.447-1 1-1s1 .447 1 1v1.549c0 .553-.447 1-1 1z"/></g><g><path d="m35 60c-.553 0-1-.447-1-1v-2c-.553 0-1-.447-1-1s.447-1 1-1h1c.553 0 1 .447 1 1v3c0 .553-.447 1-1 1z"/></g><g><path d="m25.049 60h-13.084c-.553 0-1-.447-1-1s.447-1 1-1h13.084c.553 0 1 .447 1 1s-.447 1-1 1z"/></g><g><path d="m2.998 60c-.256 0-.512-.098-.707-.293l-1.998-2c-.391-.391-.391-1.024 0-1.414.391-.391 1.023-.391 1.414 0l1.998 2c.391.391.391 1.024 0 1.414-.195.195-.451.293-.707.293z"/></g><g><path d="m1 58c-.001 0-.002 0-.002 0-.553-.001-.999-.45-.998-1.002l.014-6.002c.001-.552.449-.998 1-.998h.002c.553.001.999.45.998 1.002l-.014 6.002c-.001.552-.449.998-1 .998z"/></g><g><path d="m4 52-2.987-.002c-.552 0-.999-.448-.999-1.001 0-.552.448-.999 1-.999h.001l2.986.002c.552 0 .999.448.999 1.001 0 .552-.448.999-1 .999z"/></g><g><path d="m4.001 52c-.284 0-.566-.12-.765-.354-.356-.421-.304-1.052.118-1.409.204-.173 5.064-4.221 11.646-4.221 6.581 0 11.442 4.047 11.646 4.219.422.356.474.986.118 1.408s-.986.474-1.408.12c-.045-.038-4.526-3.747-10.356-3.747-5.857 0-10.31 3.71-10.354 3.748-.188.158-.417.236-.645.236z"/></g><g><path d="m31.728 52.758c-.043 0-.088-.003-.132-.009l-5.727-.758c-.548-.072-.933-.575-.86-1.122s.569-.936 1.122-.86l5.727.758c.548.072.933.575.86 1.122-.067.503-.496.869-.99.869z"/></g><g><path d="m15 52.002c-.552 0-1-.447-1-1 0-.552.447-1 1-1l11-.004c.552 0 1 .447 1 1 0 .552-.447 1-1 1z"/></g><g><path d="m15 52.002c-.107 0-.217-.018-.325-.055l-7-2.404c-.522-.179-.8-.748-.62-1.271.179-.521.742-.801 1.271-.62l7 2.404c.522.179.8.748.62 1.271-.142.414-.531.675-.946.675z"/></g><g><path d="m15 52.002c-.553 0-1-.447-1-1v-3.986c0-.553.447-1 1-1s1 .447 1 1v3.986c0 .553-.447 1-1 1z"/></g><g><path d="m28.512 63c-2.481 0-4.5-2.018-4.5-4.498 0-2.482 2.019-4.502 4.5-4.502s4.5 2.02 4.5 4.502c0 2.48-2.019 4.498-4.5 4.498zm0-7c-1.379 0-2.5 1.122-2.5 2.502 0 1.377 1.121 2.498 2.5 2.498s2.5-1.121 2.5-2.498c0-1.38-1.121-2.502-2.5-2.502z"/></g><g><path d="m8.5 62.93c-2.481 0-4.5-2.019-4.5-4.5s2.019-4.5 4.5-4.5 4.5 2.019 4.5 4.5-2.019 4.5-4.5 4.5zm0-7c-1.379 0-2.5 1.121-2.5 2.5s1.121 2.5 2.5 2.5 2.5-1.121 2.5-2.5-1.121-2.5-2.5-2.5z"/></g><g><path d="m5.047 60h-2.049c-.553 0-1-.447-1-1s.447-1 1-1h2.049c.553 0 1 .447 1 1s-.447 1-1 1z"/></g><g><path d="m35 60h-3.023c-.553 0-1-.447-1-1s.447-1 1-1h3.023c.553 0 1 .447 1 1s-.447 1-1 1z"/></g><g><path d="m28.542 59.5c-.553 0-1.005-.447-1.005-1s.442-1 .994-1h.011c.552 0 1 .447 1 1s-.448 1-1 1z"/></g><g><path d="m8.53 59.5c-.553 0-1.005-.447-1.005-1s.442-1 .994-1h.011c.552 0 1 .447 1 1s-.448 1-1 1z"/></g></g><g><path d="m18 48.311c-.553 0-1-.447-1-1v-2.311h-3v2.158c0 .553-.447 1-1 1s-1-.447-1-1v-3.158c0-.553.447-1 1-1h5c.553 0 1 .447 1 1v3.311c0 .552-.447 1-1 1z"/></g></g></svg>